<svg width="60" height="17" viewBox="0 0 60 17" fill="none" xmlns="http://www.w3.org/2000/svg">
<path d="M0 8.10002V16.1833H0.666666H1.33333V8.76668V1.35002H7.5H13.6667V0.683351V0.0166839H6.83333H0V8.10002Z" fill="white"/>
<path d="M17 8.10002V16.1833H17.6667H18.3333V8.10002V0.0166839H17.6667H17V8.10002Z" fill="white"/>
<path d="M30.45 0.633351C30.2333 0.983351 28.6 3.63335 26.8333 6.51668C25.0667 9.40002 23.0333 12.7167 22.3167 13.8833C21.5833 15.05 21 16.05 21 16.1C21 16.15 21.3167 16.1833 21.7167 16.1833L22.4167 16.1667L23.5167 14.3833C24.1333 13.4 26.1167 10.2 27.9167 7.26668C29.7333 4.33335 31.2833 1.86668 31.3667 1.78335C31.5333 1.56668 31.5667 1.60002 34.1 5.71668L36.2333 9.18335H36.95C37.35 9.18335 37.6667 9.11668 37.6667 9.03335C37.6667 8.88335 33.1 1.38335 32.4667 0.466684C32.2167 0.100017 32.0167 0.0166839 31.4833 0.0166839C30.9167 0.0166839 30.7833 0.100017 30.45 0.633351Z" fill="white"/>
<path d="M44.5 8.08335V16.1833H45.1667H45.8333V8.68335V1.18335H49.8C54.2333 1.18335 55.7333 1.35002 56.8333 1.91668C58.9833 3.03335 59.3333 6.16668 57.4667 7.75002C56.4 8.66668 55.5833 8.86668 52.6333 8.96668L50 9.06668V9.63335V10.2167L52.8833 10.15C56.3167 10.0667 57.1833 9.81668 58.6167 8.48335C59.6333 7.50002 60 6.61668 60 5.03335C60 3.31668 59.7667 2.73335 58.6833 1.66668C57.1167 0.133349 57.05 0.116682 50.3 0.0500154L44.5 1.5432e-05V8.08335Z" fill="white"/>
<path d="M4.33333 8.35003V9.01669H7.33333H10.3333V8.35003V7.68336H7.33333H4.33333V8.35003Z" fill="white"/>
<path d="M38.1167 11.9667C38.0833 12.05 38.6167 13.0167 39.3167 14.1333L40.5833 16.1667L41.3833 16.1833H42.1667L41.0667 14.4C39.3667 11.6667 39.5333 11.85 38.8167 11.85C38.4667 11.85 38.15 11.9 38.1167 11.9667Z" fill="white"/>
</svg>
