<svg width="30" height="30" viewBox="0 0 30 30" fill="none" xmlns="http://www.w3.org/2000/svg">
<g clip-path="url(#clip0_394_5)">
<path d="M2.05078 0.134766C1.11914 0.451172 0.363281 1.23633 0.09375 2.16211C0.0117188 2.44922 0 3.7207 0 15.0059C0 27.3105 0 27.5332 0.117188 27.8965C0.404297 28.8281 1.22461 29.6309 2.16211 29.9062C2.44922 29.9883 3.7207 30 15.0059 30C27.3105 30 27.5332 30 27.8965 29.8828C28.8281 29.5957 29.6309 28.7754 29.9062 27.8379C29.9883 27.5508 30 26.2793 30 15C30 3.7207 29.9883 2.44922 29.9062 2.16211C29.6309 1.22461 28.8281 0.404297 27.8965 0.117188C27.5332 0 27.3164 0 14.9766 0L2.43164 0.00585938L2.05078 0.134766ZM7.44727 4.18359C8.77148 4.58789 9.57422 5.82422 9.36914 7.14844C9.07617 9.0293 6.9375 10.0078 5.33203 8.99414C4.16602 8.25586 3.76758 6.73828 4.40625 5.48438C4.56445 5.17383 5.0625 4.65234 5.37891 4.4707C5.96484 4.125 6.84961 4.00195 7.44727 4.18359ZM21.4922 11.8945C22.1016 12.0469 23.0273 12.5215 23.5371 12.9492C24.5977 13.8281 25.2773 15.0762 25.4238 16.4297C25.4648 16.7695 25.4883 18.627 25.4883 21.2402V25.4883H23.2617H21.0352V21.4805C21.0352 19.0195 21.0117 17.3555 20.9766 17.1621C20.8418 16.4414 20.3555 15.8203 19.6875 15.5039C19.3477 15.3398 19.248 15.3223 18.75 15.3223C18.252 15.3223 18.1523 15.3398 17.8125 15.5039C17.1445 15.8203 16.6582 16.4414 16.5234 17.1621C16.4883 17.3555 16.4648 19.0195 16.4648 21.4805V25.4883H14.2383H12.0117V18.75V12.0117H14.2383H16.459L16.4766 12.9258L16.4941 13.834L16.8398 13.4355C17.5781 12.5801 18.6855 11.9414 19.7402 11.7773C20.1855 11.707 20.9473 11.7598 21.4922 11.8945ZM8.96484 18.75V25.4883H6.73828H4.51172V18.75V12.0117H6.73828H8.96484V18.75Z" fill="#0274B3"/>
</g>
<defs>
<clipPath id="clip0_394_5">
<rect width="30" height="30" fill="white"/>
</clipPath>
</defs>
</svg>
