<svg width="151" height="38" viewBox="0 0 151 38" fill="none" xmlns="http://www.w3.org/2000/svg">
<path d="M32.6818 1V37.0776" stroke="black" stroke-linecap="round"/>
<path d="M53.5606 22.8971C53.5606 23.5067 53.4355 24.0788 53.1849 24.6132C52.9426 25.1478 52.6126 25.6154 52.1947 26.0163C51.7852 26.4171 51.3052 26.7345 50.7534 26.9683C50.2104 27.1938 49.6341 27.3066 49.0241 27.3066H47.7332C47.1232 27.3066 46.5425 27.1938 45.9915 26.9683C45.4481 26.7345 44.9676 26.4171 44.5502 26.0163C44.1407 25.6154 43.8106 25.1478 43.56 24.6132C43.3178 24.0788 43.1967 23.5067 43.1967 22.8971V22.1831L44.8132 21.92V22.8971C44.8132 23.2979 44.8926 23.6737 45.0514 24.0245C45.2183 24.3669 45.4397 24.6717 45.7156 24.939C45.9915 25.1979 46.3087 25.4025 46.668 25.5528C47.0358 25.7031 47.42 25.7783 47.821 25.7783H48.9487C49.3498 25.7783 49.7299 25.7031 50.0893 25.5528C50.4486 25.4025 50.7662 25.1979 51.0417 24.939C51.3176 24.6717 51.5346 24.3669 51.6934 24.0245C51.8606 23.6737 51.9441 23.2979 51.9441 22.8971V22.3584C51.9441 21.7404 51.8229 21.2268 51.5807 20.8176C51.3385 20.4084 51.0169 20.0618 50.6158 19.7779C50.2148 19.4856 49.7592 19.2392 49.2495 19.0388C48.7482 18.8384 48.2305 18.6379 47.6959 18.4375C47.1609 18.2371 46.6387 18.0157 46.129 17.7736C45.6277 17.5314 45.1766 17.2307 44.7755 16.8716C44.3745 16.5042 44.0529 16.0574 43.8106 15.5312C43.5684 15.0051 43.4473 14.3579 43.4473 13.5895V13.2513C43.4473 12.6417 43.56 12.0696 43.7858 11.5351C44.0196 11.0007 44.3368 10.533 44.7378 10.1321C45.1389 9.73125 45.6069 9.4181 46.1415 9.19261C46.6849 8.95879 47.2612 8.84186 47.8711 8.84186H49.0241C49.6341 8.84186 50.2064 8.95879 50.7409 9.19261C51.2759 9.4181 51.7435 9.73125 52.1446 10.1321C52.5456 10.533 52.8588 11.0007 53.0846 11.5351C53.3184 12.0696 53.4355 12.6417 53.4355 13.2513V13.7149L51.8189 13.9779V13.2513C51.8189 12.8505 51.7435 12.4788 51.5931 12.1364C51.4428 11.7857 51.2382 11.4809 50.9792 11.222C50.7201 10.9631 50.4153 10.7585 50.0644 10.6082C49.7219 10.4579 49.3498 10.3827 48.9487 10.3827H47.9461C47.5451 10.3827 47.1693 10.4579 46.8184 10.6082C46.4759 10.7585 46.1707 10.9631 45.9036 11.222C45.6446 11.4809 45.4397 11.7857 45.2897 12.1364C45.1389 12.4788 45.0639 12.8505 45.0639 13.2513V13.5895C45.0639 14.1658 45.185 14.6502 45.4272 15.0427C45.6694 15.4352 45.9915 15.7734 46.3925 16.0574C46.7935 16.333 47.2443 16.5752 47.7456 16.7839C48.2553 16.9844 48.7775 17.1931 49.3125 17.4103C49.847 17.6191 50.3652 17.8529 50.8665 18.1118C51.3762 18.3623 51.8314 18.6755 52.2324 19.0513C52.6334 19.4188 52.9551 19.8697 53.1973 20.4042C53.4395 20.9387 53.5606 21.5901 53.5606 22.3584V22.8971ZM63.7871 22.872H58.0976L56.9197 27.056H55.2402L60.5038 9.0924H61.356L66.6448 27.056H64.9777L63.7871 22.872ZM58.5363 21.3312H63.3612L60.9926 13.0509L60.9425 12.387L60.8924 13.0509L58.5363 21.3312ZM70.5674 10.6332V17.3101H77.4476V18.8509H70.5674V27.056H68.9508V9.0924H79.0641V10.6332H70.5674ZM81.6332 27.056V9.0924H91.7469V10.6332H83.2501V17.3101H90.1303V18.8509H83.2501V25.5152H91.7469V27.056H81.6332ZM99.7303 27.056V26.2919L107.738 10.6332H99.9806V9.0924H109.844V9.86907L101.836 25.5152H109.844V27.056H99.7303ZM122.79 22.8971C122.79 23.5067 122.673 24.0788 122.439 24.6132C122.213 25.1478 121.9 25.6154 121.499 26.0163C121.098 26.4171 120.63 26.7345 120.095 26.9683C119.56 27.1938 118.988 27.3066 118.379 27.3066H117.1C116.49 27.3066 115.914 27.1938 115.371 26.9683C114.836 26.7345 114.368 26.4171 113.967 26.0163C113.566 25.6154 113.248 25.1478 113.014 24.6132C112.789 24.0788 112.676 23.5067 112.676 22.8971V13.2513C112.676 12.6417 112.789 12.0696 113.014 11.5351C113.248 11.0007 113.566 10.533 113.967 10.1321C114.368 9.73125 114.836 9.4181 115.371 9.19261C115.914 8.95879 116.49 8.84186 117.1 8.84186H118.379C118.988 8.84186 119.56 8.95879 120.095 9.19261C120.63 9.4181 121.098 9.73125 121.499 10.1321C121.9 10.533 122.213 11.0007 122.439 11.5351C122.673 12.0696 122.79 12.6417 122.79 13.2513V22.8971ZM121.173 13.2513C121.173 12.8505 121.098 12.4788 120.948 12.1364C120.797 11.7857 120.592 11.4809 120.333 11.222C120.075 10.9631 119.769 10.7585 119.418 10.6082C119.076 10.4579 118.704 10.3827 118.303 10.3827H117.175C116.774 10.3827 116.398 10.4579 116.047 10.6082C115.705 10.7585 115.4 10.9631 115.133 11.222C114.873 11.4809 114.669 11.7857 114.518 12.1364C114.368 12.4788 114.293 12.8505 114.293 13.2513V22.8971C114.293 23.2979 114.368 23.6737 114.518 24.0245C114.669 24.3669 114.873 24.6717 115.133 24.939C115.4 25.1979 115.705 25.4025 116.047 25.5528C116.398 25.7031 116.774 25.7783 117.175 25.7783H118.303C118.704 25.7783 119.076 25.7031 119.418 25.5528C119.769 25.4025 120.075 25.1979 120.333 24.939C120.592 24.6717 120.797 24.3669 120.948 24.0245C121.098 23.6737 121.173 23.2979 121.173 22.8971V13.2513ZM135.911 27.056L128.417 13.9779L128.266 13.2012V27.056H126.649V9.0924H127.489L134.984 22.1831L135.147 22.9472V9.0924H136.763V27.056H135.911ZM140.886 27.056V9.0924H151V10.6332H142.503V17.3101H149.383V18.8509H142.503V25.5152H151V27.056H140.886Z" fill="#2196F3"/>
<path d="M10.0633 7.048C9.37578 7.18119 8.68397 7.45628 8.16407 7.80867C8.00936 7.91181 6.50549 9.05071 4.82539 10.3314C1.46953 12.8928 1.24609 13.0862 0.764843 13.8641C0.459765 14.3583 0.20625 14.9987 0.0902343 15.5703C0.00429687 15.9914 0 16.129 0 20.2247C0 24.3161 0.00429687 24.4579 0.0902343 24.8791C0.50703 26.9376 2.17851 28.5665 4.24961 28.9275C4.80392 29.0263 17.2133 29.022 17.7719 28.9275C18.8031 28.747 19.7226 28.2613 20.4961 27.4878C21.0891 26.8946 21.5016 26.2371 21.7594 25.4635C22 24.7458 22 24.7416 22 20.1946C22 16.1634 21.9957 15.9872 21.9141 15.5789C21.6949 14.5174 21.1363 13.4902 20.4016 12.8112C19.9633 12.4072 19.7957 12.3169 19.4691 12.3169C18.9363 12.3169 18.6055 12.6478 18.6055 13.1765C18.6055 13.5074 18.7172 13.718 19.0223 13.9672C19.5035 14.3627 19.8945 14.9428 20.0879 15.5531C20.2684 16.1247 20.2899 16.6103 20.2726 20.59C20.2555 24.2473 20.2555 24.2903 20.1609 24.6298C19.8086 25.9019 18.8805 26.8302 17.643 27.144C17.3078 27.2299 17.1703 27.2299 11 27.2299C4.8297 27.2299 4.6922 27.2299 4.35703 27.144C3.34726 26.8861 2.51797 26.2071 2.07969 25.2744C1.73164 24.5352 1.74883 24.7458 1.73164 20.59C1.71445 16.7435 1.73164 16.1461 1.88633 15.6347C2.0668 15.0502 2.46211 14.4314 2.8918 14.0618C3.01641 13.9543 4.46015 12.8413 6.10157 11.5863C8.64961 9.63947 9.15235 9.27418 9.5176 9.09369C10.0418 8.84012 10.4285 8.74988 11 8.74988C12.0828 8.74988 12.4094 8.91747 14.6309 10.6237C15.5762 11.3457 16.4184 11.9688 16.5 12.0032C16.5945 12.0462 16.7363 12.0634 16.9125 12.0505C17.2133 12.0333 17.4109 11.9215 17.5785 11.6809L17.6816 11.5261L17.6945 9.87157C17.7074 8.14818 17.6988 8.00205 17.527 7.7872C17.2434 7.42618 16.5 7.40466 16.1906 7.74848C16.023 7.93328 15.9844 8.12239 15.9844 8.77135C15.9844 9.11517 15.9758 9.39452 15.9672 9.39452C15.9543 9.39452 15.4902 9.04639 14.9274 8.61665C14.3645 8.19117 13.7758 7.76568 13.6211 7.67113C13.2601 7.45628 12.6844 7.22418 12.2332 7.11246C11.7734 6.99639 10.5359 6.96203 10.0633 7.048Z" fill="#2196F3"/>
<path d="M8.79685 17.0191C8.5362 17.0706 8.2755 17.2453 8.13916 17.4676C8.0429 17.6225 8.01481 17.7177 8.00278 17.9361C7.96269 18.5792 8.35973 19 8.99738 19C9.60699 19 9.99598 18.611 10 18.0036C10 17.3525 9.45056 16.8999 8.79685 17.0191Z" fill="#2196F3"/>
<path d="M12.5388 17.0968C12.4304 17.1489 12.298 17.2331 12.2499 17.2852C11.9167 17.65 11.9167 18.3556 12.2499 18.7204C12.595 19.0932 13.4057 19.0932 13.7508 18.7204C14.096 18.3435 14.08 17.5858 13.7188 17.2531C13.4338 16.9926 12.908 16.9204 12.5388 17.0968Z" fill="#2196F3"/>
<path d="M8.5409 20.0967C8.30042 20.209 8.19224 20.3213 8.08402 20.5618C7.92372 20.9146 7.99985 21.4438 8.25232 21.7204C8.597 22.0932 9.40653 22.0932 9.75122 21.7204C10.0959 21.3435 10.0799 20.5859 9.71917 20.2531C9.4346 19.9925 8.9096 19.9204 8.5409 20.0967Z" fill="#2196F3"/>
<path d="M12.5388 20.0967C12.4304 20.1489 12.298 20.2331 12.2499 20.2852C11.9167 20.65 11.9167 21.3556 12.2499 21.7204C12.595 22.0932 13.4057 22.0932 13.7508 21.7204C14.096 21.3435 14.08 20.5859 13.7188 20.2531C13.4338 19.9925 12.908 19.9204 12.5388 20.0967Z" fill="#2196F3"/>
</svg>
