<svg width="260" height="64" viewBox="0 0 260 64" fill="none" xmlns="http://www.w3.org/2000/svg">
<path d="M56.2734 1V63.1203Z" fill="white"/>
<path d="M56.2734 1V63.1203" stroke="white" stroke-linecap="round"/>
<path d="M92.2236 38.7036C92.2236 39.7533 92.0082 40.7383 91.5766 41.6586C91.1595 42.5789 90.5912 43.3842 89.8717 44.0744C89.1667 44.7646 88.3401 45.3111 87.3899 45.7137C86.455 46.102 85.4627 46.2961 84.4124 46.2961H82.1896C81.1393 46.2961 80.1394 46.102 79.1906 45.7137C78.255 45.3111 77.4277 44.7646 76.7089 44.0744C76.0039 43.3842 75.4356 42.5789 75.004 41.6586C74.5869 40.7383 74.3784 39.7533 74.3784 38.7036V37.4742L77.1619 37.0212V38.7036C77.1619 39.3938 77.2986 40.0409 77.572 40.6449C77.8593 41.2345 78.2405 41.7593 78.7155 42.2195C79.1906 42.6652 79.7368 43.0175 80.3555 43.2764C80.9888 43.5352 81.6503 43.6646 82.3408 43.6646H84.2826C84.9731 43.6646 85.6277 43.5352 86.2464 43.2764C86.8651 43.0175 87.412 42.6652 87.8864 42.2195C88.3615 41.7593 88.7351 41.2345 89.0085 40.6449C89.2965 40.0409 89.4401 39.3938 89.4401 38.7036V37.7761C89.4401 36.712 89.2316 35.8276 88.8145 35.1231C88.3974 34.4185 87.8436 33.8217 87.1531 33.3328C86.4626 32.8295 85.6781 32.4053 84.8005 32.0602C83.9373 31.7151 83.0458 31.37 82.1254 31.0248C81.2042 30.6797 80.3051 30.2987 79.4275 29.8817C78.5643 29.4647 77.7875 28.947 77.097 28.3287C76.4064 27.696 75.8526 26.9266 75.4356 26.0207C75.0185 25.1148 74.8099 24.0003 74.8099 22.6774V22.095C74.8099 21.0454 75.004 20.0603 75.3927 19.14C75.7953 18.2197 76.3415 17.4144 77.032 16.7242C77.7226 16.034 78.5284 15.4948 79.4489 15.1065C80.3845 14.7039 81.3768 14.5026 82.4271 14.5026H84.4124C85.4627 14.5026 86.4481 14.7039 87.3685 15.1065C88.2897 15.4948 89.0948 16.034 89.7854 16.7242C90.4759 17.4144 91.0152 18.2197 91.404 19.14C91.8065 20.0603 92.0082 21.0454 92.0082 22.095V22.8932L89.2247 23.3461V22.095C89.2247 21.4048 89.0948 20.7649 88.8359 20.1753C88.5769 19.5714 88.2248 19.0465 87.7787 18.6008C87.3326 18.155 86.8078 17.8027 86.2036 17.5439C85.6139 17.2851 84.9731 17.1556 84.2826 17.1556H82.5563C81.8657 17.1556 81.2187 17.2851 80.6145 17.5439C80.0248 17.8027 79.4993 18.155 79.0394 18.6008C78.5933 19.0465 78.2405 19.5714 77.9822 20.1753C77.7226 20.7649 77.5934 21.4048 77.5934 22.095V22.6774C77.5934 23.6697 77.802 24.5037 78.2191 25.1795C78.6361 25.8553 79.1906 26.4377 79.8812 26.9266C80.5717 27.4012 81.3478 27.8182 82.211 28.1777C83.0886 28.5228 83.9877 28.8822 84.9089 29.2561C85.8293 29.6156 86.7215 30.0183 87.5847 30.464C88.4623 30.8954 89.2461 31.4347 89.9366 32.0817C90.6271 32.7144 91.1809 33.491 91.598 34.4112C92.0151 35.3316 92.2236 36.4532 92.2236 37.7761V38.7036ZM109.832 38.6605H100.036L98.0075 45.8647H95.1155L104.179 14.934H105.646L114.753 45.8647H111.882L109.832 38.6605ZM100.791 36.0074H109.099L105.02 21.7499L104.934 20.6067L104.848 21.7499L100.791 36.0074ZM121.507 17.587V29.0836H133.353V31.7366H121.507V45.8647H118.723V14.934H136.137V17.587H121.507ZM140.56 45.8647V14.934H157.975V17.587H143.345V29.0836H155.191V31.7366H143.345V43.2116H157.975V45.8647H140.56ZM171.721 45.8647V44.549L185.51 17.587H172.152V14.934H189.135V16.2713L175.346 43.2116H189.135V45.8647H171.721ZM211.426 38.7036C211.426 39.7533 211.225 40.7383 210.821 41.6586C210.433 42.5789 209.894 43.3842 209.204 44.0744C208.513 44.7646 207.707 45.3111 206.787 45.7137C205.866 46.102 204.88 46.2961 203.831 46.2961H201.629C200.579 46.2961 199.587 46.102 198.652 45.7137C197.73 45.3111 196.925 44.7646 196.235 44.0744C195.544 43.3842 194.997 42.5789 194.594 41.6586C194.206 40.7383 194.012 39.7533 194.012 38.7036V22.095C194.012 21.0454 194.206 20.0603 194.594 19.14C194.997 18.2197 195.544 17.4144 196.235 16.7242C196.925 16.034 197.73 15.4948 198.652 15.1065C199.587 14.7039 200.579 14.5026 201.629 14.5026H203.831C204.88 14.5026 205.866 14.7039 206.787 15.1065C207.707 15.4948 208.513 16.034 209.204 16.7242C209.894 17.4144 210.433 18.2197 210.821 19.14C211.225 20.0603 211.426 21.0454 211.426 22.095V38.7036ZM208.642 22.095C208.642 21.4048 208.513 20.7649 208.254 20.1753C207.995 19.5714 207.642 19.0465 207.196 18.6008C206.751 18.155 206.225 17.8027 205.621 17.5439C205.031 17.2851 204.391 17.1556 203.701 17.1556H201.759C201.068 17.1556 200.421 17.2851 199.817 17.5439C199.227 17.8027 198.701 18.155 198.241 18.6008C197.795 19.0465 197.443 19.5714 197.184 20.1753C196.925 20.7649 196.795 21.4048 196.795 22.095V38.7036C196.795 39.3938 196.925 40.0409 197.184 40.6449C197.443 41.2345 197.795 41.7593 198.241 42.2195C198.701 42.6652 199.227 43.0175 199.817 43.2764C200.421 43.5352 201.068 43.6646 201.759 43.6646H203.701C204.391 43.6646 205.031 43.5352 205.621 43.2764C206.225 43.0175 206.751 42.6652 207.196 42.2195C207.642 41.7593 207.995 41.2345 208.254 40.6449C208.513 40.0409 208.642 39.3938 208.642 38.7036V22.095ZM234.019 45.8647L221.115 23.3461L220.856 22.0088V45.8647H218.072V14.934H219.518L232.422 37.4742L232.703 38.7899V14.934H235.486V45.8647H234.019ZM242.586 45.8647V14.934H260V17.587H245.37V29.0836H257.217V31.7366H245.37V43.2116H260V45.8647H242.586Z" fill="white"/>
<path d="M17.3275 11.4138C16.1437 11.6431 14.9525 12.1168 14.0573 12.7235C13.791 12.9011 11.2015 14.8621 8.30862 17.0673C2.53032 21.4777 2.14559 21.8107 1.31695 23.1501C0.791648 24.0011 0.355132 25.1037 0.15537 26.0879C0.00739859 26.8131 0 27.0499 0 34.1021C0 41.1469 0.00739859 41.391 0.15537 42.1162C0.873031 45.6608 3.75108 48.4654 7.31721 49.0871C8.27165 49.2572 29.6388 49.2498 30.6006 49.0871C32.3763 48.7762 33.9595 47.94 35.2913 46.6081C36.3123 45.5868 37.0226 44.4546 37.4664 43.1227C37.8808 41.8868 37.8808 41.8795 37.8808 34.0503C37.8808 27.1091 37.8734 26.8057 37.7328 26.1027C37.3555 24.2749 36.3937 22.5063 35.1285 21.3371C34.3739 20.6415 34.0853 20.4861 33.523 20.4861C32.6056 20.4861 32.0359 21.0559 32.0359 21.9661C32.0359 22.5359 32.2283 22.8985 32.7535 23.3277C33.5822 24.0085 34.2554 25.0075 34.5884 26.0583C34.8992 27.0425 34.9362 27.8787 34.9065 34.7311C34.877 41.0285 34.877 41.1025 34.7142 41.687C34.1075 43.8775 32.5094 45.4758 30.3786 46.0161C29.8015 46.164 29.5647 46.164 18.9404 46.164C8.31605 46.164 8.07929 46.164 7.50217 46.0161C5.7635 45.572 4.33558 44.4029 3.58092 42.797C2.98163 41.5242 3.01123 41.8868 2.98163 34.7311C2.95203 28.1081 2.98163 27.0795 3.24798 26.1989C3.55873 25.1925 4.23939 24.1269 4.97926 23.4905C5.19381 23.3055 7.67972 21.3889 10.506 19.2281C14.8934 15.8759 15.759 15.2469 16.3879 14.9362C17.2905 14.4995 17.9564 14.3441 18.9404 14.3441C20.8048 14.3441 21.3671 14.6327 25.1922 17.5705C26.8199 18.8137 28.2701 19.8867 28.4106 19.9459C28.5733 20.0199 28.8175 20.0495 29.1209 20.0273C29.6388 19.9977 29.9791 19.8053 30.2677 19.3909L30.4452 19.1245L30.4674 16.2755C30.4896 13.3081 30.4748 13.0565 30.1789 12.6866C29.6906 12.0649 28.4106 12.0279 27.8779 12.6199C27.5893 12.9381 27.5227 13.2637 27.5227 14.3811C27.5227 14.9731 27.508 15.4541 27.4932 15.4541C27.471 15.4541 26.6719 14.8547 25.7027 14.1147C24.7335 13.3821 23.7199 12.6495 23.4535 12.4867C22.832 12.1168 21.8406 11.7171 21.0638 11.5248C20.2721 11.3249 18.1413 11.2657 17.3275 11.4138Z" fill="white"/>
<path d="M15.1469 28.5825C14.6981 28.6713 14.2492 28.9721 14.0145 29.3549C13.8487 29.6215 13.8003 29.7855 13.7796 30.1615C13.7106 31.2689 14.3942 31.9934 15.4922 31.9934C16.5418 31.9934 17.2116 31.3235 17.2185 30.2777C17.2185 29.1566 16.2725 28.3774 15.1469 28.5825Z" fill="white"/>
<path d="M21.59 28.7163C21.4034 28.806 21.1754 28.951 21.0924 29.0407C20.5188 29.6689 20.5188 30.8838 21.0924 31.5119C21.6867 32.1539 23.0827 32.1539 23.6769 31.5119C24.2713 30.8631 24.2436 29.5584 23.6217 28.9855C23.131 28.5369 22.2257 28.4126 21.59 28.7163Z" fill="white"/>
<path d="M14.7062 33.8818C14.2921 34.0751 14.1058 34.2684 13.9195 34.6826C13.6435 35.2901 13.7746 36.2012 14.2093 36.6775C14.8028 37.3195 16.1967 37.3195 16.7902 36.6775C17.3836 36.0286 17.3561 34.724 16.735 34.1511C16.245 33.7024 15.341 33.5782 14.7062 33.8818Z" fill="white"/>
<path d="M21.59 33.8818C21.4034 33.9716 21.1754 34.1166 21.0924 34.2063C20.5188 34.8344 20.5188 36.0493 21.0924 36.6775C21.6867 37.3195 23.0827 37.3195 23.6769 36.6775C24.2713 36.0286 24.2436 34.724 23.6217 34.1511C23.131 33.7024 22.2257 33.5782 21.59 33.8818Z" fill="white"/>
</svg>
